<svg xmlns="http://www.w3.org/2000/svg" xmlns:xlink="http://www.w3.org/1999/xlink" id="2-01" data-name="2-01" viewBox="0 0 1000 1000">
  <defs>
    <style>
      .logo{fill:url(#linear-gradient);}
    </style>
    <linearGradient id="linear-gradient" x1="841.51" y1="-91.51" x2="158.49" y2="1091.51" gradientUnits="userSpaceOnUse">
      <stop offset="0" stop-color="#c32034"/>
      <stop offset="1" stop-color="#f04f34"/>
    </linearGradient>
  </defs>
  <title>Fire</title>
  <path class="logo" d="M670.78,605.61c-1.35,11.28-3.8,31.76-11.91,52.43-4.44,11.28-17.07,42.24-49.37,65.36-39.7,28.43-82.29,25.8-94.63,24.85-11.16-.86-35.09-2.92-60.26-18.38-11.08-6.81-31.88-19.59-42.55-45.62-8.89-21.68-6.09-41.23-4.77-49.7C412.06,604,429.61,582.9,447.8,561c15.53-18.68,21.5-21.27,38.81-43.91a236.45,236.45,0,0,0,22.13-34.72,211.37,211.37,0,0,0,17.36-45.62c2.36-9.66,5.92-24.69,5.45-44.6a129,129,0,0,0-11.92-53.1,144.14,144.14,0,0,0-12.94-22.81c1.76,15.63,2.06,39.52-8.68,64.51-4.21,9.81-8.71,16.49-14.46,24.68-30.95,44-66.55,86.66-76.94,99.06-14.27,17-24.43,29-34.72,48.34-11,20.65-13.69,33.93-14.3,37.11a113.72,113.72,0,0,0,2,51.41,117.12,117.12,0,0,0,14.3,32c6.87,10.56,13.65,17,13.28,17.36s-14.09-11.09-26.9-27.24c-9-11.31-20.64-26-27.57-49A128.45,128.45,0,0,1,328,565.78a132.8,132.8,0,0,1,11.24-41.87c6.14-14.23,13.08-24.14,21.44-36.09A267.37,267.37,0,0,1,379.38,464c6.78-7.64,9.17-8.8,17.7-18,7.79-8.43,13.17-15.25,16.78-19.87,6.72-8.56,15.4-19.63,23.39-33.58,16.73-29.19,21.89-56,24.17-68.42a173.77,173.77,0,0,0,3.4-32.68,166.09,166.09,0,0,0-4.76-40.17,158,158,0,0,1,26.21,9.87A160.22,160.22,0,0,1,523,285.61a166.47,166.47,0,0,1,50.38,84.09c4.45,18.87,4.27,34,4.08,44.59a210.32,210.32,0,0,1-3.06,32,217.55,217.55,0,0,1-15.66,51.41,237.35,237.35,0,0,1-20.09,35.74c-7.16,10.57-17.59,23-38.46,48-10.37,12.39-13.48,15.9-17.36,23.15s-10.41,19.76-10.56,36.77c-.07,8.42-.25,28.61,14.64,42.21,12.2,11.13,27.78,11.71,33.36,11.91,9.61.36,16.73-1.78,24.17-4.08C551.31,689.28,566.36,684,584,671a160.13,160.13,0,0,0,42.9-47.66c16-27.81,18.88-53,21.1-72.85,2.88-25.62.8-45.94-1.36-67.06a439.11,439.11,0,0,0-7.83-49,410.09,410.09,0,0,1,16,41.53A393.46,393.46,0,0,1,667,523.23c2.33,12.41,4.88,26.23,5.44,44.93A252.91,252.91,0,0,1,670.78,605.61Z"/>
</svg>